<?xml version="1.0" encoding="utf-8"?>
<!-- Generator: Adobe Illustrator 26.3.1, SVG Export Plug-In . SVG Version: 6.00 Build 0)  -->
<svg version="1.1" id="Layer_1" xmlns="http://www.w3.org/2000/svg" xmlns:xlink="http://www.w3.org/1999/xlink" x="0px" y="0px"
	 viewBox="0 0 175.2 28.2" style="enable-background:new 0 0 175.2 28.2;" xml:space="preserve">
<style type="text/css">
	.st0{fill-rule:evenodd;clip-rule:evenodd;fill:#FFFFFF;}
	.st1{fill:#3B9C25;}
	.st2{fill:#FFFFFF;}
	.st3{fill:#707070;}
</style>
<g>
	<g>
		<path class="st0" d="M51.1,10.3h-3.8V8.1h10.4v2.3h-3.8V20h-2.8V10.3z M67.5,17.5H62L60.9,20H58l5.3-12h2.7l5.4,12h-2.9L67.5,17.5
			z M66.6,15.4l-1.9-4.6l-1.9,4.6H66.6z M84.2,14.9c-0.4-0.5-0.9-0.9-1.6-1.1c0.5-0.3,0.9-0.6,1.2-1.1c0.3-0.5,0.4-1,0.4-1.6
			c0-1-0.4-1.7-1.2-2.3c-0.8-0.6-1.9-0.8-3.3-0.8h-5.8v12h6.2c1.6,0,2.8-0.3,3.6-0.8c0.8-0.6,1.2-1.4,1.2-2.4
			C84.7,16,84.5,15.4,84.2,14.9z M76.5,13v-2.8h2.8c0.7,0,1.2,0.1,1.6,0.4c0.3,0.2,0.5,0.6,0.5,1c0,0.5-0.2,0.8-0.5,1.1
			S79.9,13,79.2,13C79.2,13,76.5,13,76.5,13z M81.4,17.6c-0.4,0.2-0.9,0.4-1.6,0.4h-3.2V15h3.2c1.5,0,2.2,0.5,2.2,1.5
			C81.9,17,81.8,17.4,81.4,17.6z M87.9,8.1h2.8v9.7h6V20h-8.8V8.1z M108.5,20v-2.2H102V15h5.6v-2.1H102v-2.6h6.3V8.1h-9.1v12H108.5z
			 M114.2,10.3h-3.8V8.1h10.4v2.3H117V20h-2.8L114.2,10.3L114.2,10.3z M126.1,17l1.6-1.7l3.8,4.7h3.2l-5.2-6.6l5-5.3h-3.1l-5.3,5.6
			V8.1h-2.8v12h2.8V17z M137,8.1h2.8v12H137V8.1z M143.3,19.7c0.3,0.3,0.7,0.5,1.2,0.5c0.5,0,0.9-0.2,1.2-0.5
			c0.3-0.3,0.5-0.7,0.5-1.2c0-0.5-0.2-0.9-0.5-1.2c-0.3-0.3-0.7-0.5-1.2-0.5c-0.5,0-0.9,0.1-1.2,0.5c-0.3,0.3-0.5,0.7-0.5,1.2
			C142.8,19,143,19.4,143.3,19.7z M154.4,20.2c-1.7,0-3-0.5-4-1.4c-0.9-1-1.4-2.3-1.4-4V8.1h2.8v6.6c0,2.1,0.9,3.2,2.7,3.2
			c0.9,0,1.5-0.3,2-0.8c0.5-0.5,0.7-1.3,0.7-2.4V8.1h2.7v6.7c0,1.8-0.5,3.1-1.4,4C157.4,19.8,156.1,20.2,154.4,20.2z M165.6,17.5
			h5.6l1.1,2.6h2.9l-5.4-12h-2.7l-5.3,12h2.8L165.6,17.5z M168.4,10.8l1.9,4.6h-3.8L168.4,10.8z"/>
	</g>
	<g>
		<g>
			<path class="st1" d="M13.6,28c7.5,0,13.6-6.1,13.6-13.6c0-7.5-6.1-13.6-13.6-13.6C6.1,0.7,0,6.8,0,14.4C0,21.9,6.1,28,13.6,28z"
				/>
		</g>
		<g>
			<path class="st2" d="M13.9,26.7c7.3,0,13.3-6,13.3-13.3c0-7.3-6-13.3-13.3-13.3C6.5,0.1,0.6,6.1,0.6,13.4
				C0.6,20.8,6.5,26.7,13.9,26.7z"/>
			<path class="st3" d="M13.9,26.9c-3.6,0-7-1.4-9.5-3.9c-2.5-2.5-3.9-5.9-3.9-9.5C0.4,6,6.5,0,13.9,0s13.5,6,13.5,13.5
				S21.3,26.9,13.9,26.9z M13.9,0.3C6.6,0.3,0.7,6.2,0.7,13.5c0,3.5,1.4,6.8,3.8,9.3c2.5,2.5,5.8,3.9,9.3,3.9
				c7.2,0,13.1-5.9,13.1-13.1C27,6.2,21.1,0.3,13.9,0.3z"/>
		</g>
		<g>
			
				<rect x="13.6" y="0.1" transform="matrix(0.6061 -0.7954 0.7954 0.6061 -5.2146 16.3396)" class="st3" width="0.6" height="26.6"/>
		</g>
		<g>
			<path class="st1" d="M31.9,28.2c7.3,0,13.3-6,13.3-13.3c0-7.3-6-13.3-13.3-13.3c-7.4,0-13.3,5.9-13.3,13.3
				C18.6,22.2,24.6,28.2,31.9,28.2z"/>
		</g>
		<g>
			<path class="st2" d="M31.9,27.4c7.3,0,13.3-6,13.3-13.3c0-7.3-6-13.3-13.3-13.3c-7.4,0-13.3,5.9-13.3,13.3
				C18.6,21.5,24.6,27.4,31.9,27.4z"/>
			<path class="st3" d="M31.9,27.6c-7.4,0-13.5-6-13.5-13.5c0-7.4,6-13.5,13.5-13.5s13.5,6,13.5,13.5C45.4,21.6,39.4,27.6,31.9,27.6
				z M31.9,1c-7.2,0-13.1,5.9-13.1,13.1c0,7.2,5.9,13.1,13.1,13.1c7.2,0,13.1-5.9,13.1-13.1C45.1,6.9,39.2,1,31.9,1z"/>
		</g>
		<g>
			<rect x="31.6" y="0.9" class="st3" width="0.6" height="26.6"/>
		</g>
	</g>
</g>
</svg>
