<svg xmlns="http://www.w3.org/2000/svg" width="95" height="36" viewBox="0 0 95 36">
    <g fill="none" fill-rule="evenodd">
        <path fill="#3FCFD5" d="M76.729.224a17.492 17.492 0 0 0-11.61 5.132c-6.86 6.868-6.86 18.003 0 24.871a17.492 17.492 0 0 0 11.61 5.132V.224zM89.963 5.356A17.495 17.495 0 0 0 78.353.224v35.135a17.495 17.495 0 0 0 11.61-5.132c6.86-6.868 6.86-18.003 0-24.871"/>
        <path fill="#FFF" d="M72.211 15.212v.377c0 .977-.188 1.731-1.422 3.205l-2.486 3h4.029v1.25h-5.777V21.93l3.428-4.336c.651-.823.771-1.182.771-1.988v-.308c0-1.097-.53-1.526-1.782-1.526-.669 0-1.56.189-2.16.377v-1.251c.755-.206 1.56-.36 2.16-.36 2.228 0 3.24.908 3.24 2.674M83.06 19.634h3.12v-5.228l-3.12 5.228zm4.525 0h1.046v1.2h-1.046v2.21h-1.423v-2.21h-4.661v-1.012l4.421-7.079h1.663v6.89z"/>
        <path fill="#000" d="M2.27 23.64h5.933v1.712H.33V10.407H2.27zM16.847 25.352h1.94V10.407h-1.94zM34.273 17.64l6.32 7.712h-2.486l-5.842-7.324v7.324h-1.939V10.407h1.94v7.21l5.566-7.21H40zM48.114 25.352h1.939V10.407h-1.94z"/>
    </g>
</svg>
