<?xml version="1.0" encoding="UTF-8" standalone="no"?>
<!DOCTYPE svg  PUBLIC '-//W3C//DTD SVG 1.1//EN'  'http://www.w3.org/Graphics/SVG/1.1/DTD/svg11.dtd'>
<svg xmlns="http://www.w3.org/2000/svg" text-rendering="geometricPrecision" xml:space="preserve" height="24px" shape-rendering="geometricPrecision" width="189px" version="1.1" clip-rule="evenodd" image-rendering="optimizeQuality" xmlns:xlink="http://www.w3.org/1999/xlink" viewBox="0 0 3665 455">
<path d="m3423 380h85v-233l-75 48-31-46 137-101h44v332h82v65h-242v-65zm-640-220c-3-10-7-18-12-26-6-7-14-14-24-19-9-3-20-6-33-6-19 0-35 5-45 17-12 11-17 27-17 47-30 59 167 106 131-13zm-207 16c0-180 287-179 287 18 0 44-6 80-19 112-33 92-106 141-200 147l-17-60c93-8 220-134 120-101-26 10-64 6-91-2-30-10-56-31-69-60-7-15-11-32-11-54zm441 204h83v-233l-73 48-32-46 136-101h45v332h82v65h-241v-65zm306-153c23 0 41 17 41 41 0 22-18 39-41 39s-40-17-40-39c0-24 17-41 40-41zm-381 0c23 0 41 17 41 41 0 22-18 39-41 39-22 0-40-17-40-39 0-24 18-41 40-41zm-2660 163h-138l-20 65h-124l148-394h134l148 394h-128l-20-65zm-25-86l-44-141-42 141h86zm589 151h-122v-297h-133v297h-123v-394h378v394zm54-394h370v97h-125v297h-121v-297h-124v-97zm425 0h326v84h-204v63h189v80h-189v78h210v89h-332v-394zm756 394h-137l-48-101c-11-25-20-54-52-54v155h-122v-394h122v151c108-9-28-154 224-154v84c-17 0-38 0-52 11-10 8-18 21-24 38-7 18-14 31-21 40-41 52 4 7 57 116l53 108zm286-65h-138l-19 65h-125l148-394h134l148 394h-127l-21-65zm-25-86l-44-141-42 141h86z" fill="#8E2422"/>
<path d="m3423 334h85v-233l-75 48-31-45 137-103h44v333h82v65h-242v-65zm-771-207c0 41 29 62 68 62 23 0 50-7 66-25 0-4 1-8 1-12 0-16 2-20-4-38-6-21-16-34-36-44-22-11-61-10-78 10-12 11-17 27-17 47zm-67-48c15-35 36-56 71-69 18-7 37-10 59-10 46 0 83 13 108 38 26 26 40 63 40 110 0 69-18 141-66 191-40 42-96 65-153 67l-17-59c40-5 74-15 105-42 24-20 40-49 47-79-9 10-20 16-32 20-27 8-64 7-91-2-30-10-55-31-69-60-15-31-15-74-2-105zm432 255h83v-233l-73 48-32-45 136-103h45v333h82v65h-241v-65zm306-154c23 0 41 19 41 41s-18 41-41 41-40-19-40-41 17-41 40-41zm-381 0c23 0 41 19 41 41s-18 41-41 41c-22 0-40-19-40-41s18-41 40-41zm-2660 164h-138l-20 65h-124l148-394h134l148 394h-128l-20-65zm-25-85l-44-143-42 143h86zm589 150h-122v-297h-133v297h-123v-394h378v394zm54-394h370v97h-125v297h-121v-297h-124v-97zm425 0h326v84h-204v63h189v80h-189v78h210v89h-332v-394zm756 394h-137l-48-102c-11-24-20-54-52-54v156h-122v-394h122v151c11 0 19-4 25-11 7-8 15-27 28-61 16-41 27-65 73-76 21-4 54-6 98-6v83h-5c-39 0-59 13-71 50-11 27-23 50-52 61 18 5 33 15 46 30 14 13 27 36 42 66l53 107zm286-65h-138l-19 65h-125l148-394h134l148 394h-127l-21-65zm-25-85l-44-143-42 143h86z" fill="#fff"/>
</svg>
