<svg aria-hidden="true" style="position: absolute; width: 0; height: 0; overflow: hidden;" version="1.1" xmlns="http://www.w3.org/2000/svg" xmlns:xlink="http://www.w3.org/1999/xlink">
<defs>
<symbol id="icon-water_icon" viewBox="0 0 32 32">
<path fill="#394556" style="fill: var(--color1, #394556)" d="M12.789 0.557c-0.549-0.477-1.862-1.249-2.077 0.748-0.764 5.157-6.311 8.762-6.311 13.847 0 4.289 3.478 7.767 7.767 7.767s7.767-3.478 7.767-7.767c-0.008-3.892-1.568-9.749-7.146-14.595zM9.128 19.267c-0.119 0.159-0.302 0.247-0.493 0.247-0.127 0-0.255-0.040-0.366-0.119-0.072-0.048-1.679-1.265-2.021-3.557-0.35-2.292 1.21-4.449 1.273-4.536 0.199-0.271 0.581-0.334 0.852-0.135s0.334 0.581 0.135 0.852c-0.024 0.024-1.321 1.846-1.050 3.629s1.528 2.754 1.544 2.762c0.271 0.207 0.326 0.589 0.127 0.86z"></path>
<path fill="#f7f1e6" style="fill: var(--color2, #f7f1e6)" d="M9.009 18.415c-0.016-0.008-1.273-0.979-1.544-2.761s1.035-3.605 1.051-3.629c0.199-0.271 0.143-0.653-0.135-0.852-0.271-0.199-0.653-0.143-0.852 0.135-0.064 0.088-1.623 2.244-1.273 4.536s1.958 3.51 2.021 3.557c0.111 0.080 0.239 0.119 0.366 0.119 0.183 0 0.374-0.088 0.493-0.247 0.191-0.279 0.135-0.661-0.127-0.86z"></path>
<path fill="#394556" style="fill: var(--color1, #394556)" d="M23.524 19.243c-0.318-0.271-1.058-0.716-1.186 0.422-0.438 2.945-3.605 5.006-3.605 7.902 0 2.443 1.982 4.433 4.433 4.433 2.443 0 4.433-1.982 4.433-4.433 0-2.22-0.891-5.563-4.075-8.324zM21.439 29.923c-0.072 0.096-0.175 0.143-0.279 0.143-0.072 0-0.143-0.024-0.207-0.072-0.040-0.032-0.955-0.724-1.154-2.029-0.199-1.313 0.692-2.539 0.724-2.586 0.111-0.159 0.334-0.191 0.485-0.072 0.159 0.111 0.191 0.334 0.072 0.485-0.008 0.016-0.756 1.050-0.597 2.069 0.151 1.019 0.875 1.568 0.883 1.576 0.151 0.111 0.183 0.326 0.072 0.485z"></path>
<path fill="#f7f1e6" style="fill: var(--color2, #f7f1e6)" d="M21.368 29.43c-0.008-0.008-0.724-0.557-0.883-1.576-0.151-1.019 0.589-2.053 0.597-2.069 0.111-0.159 0.080-0.374-0.072-0.485-0.159-0.111-0.374-0.080-0.485 0.072-0.040 0.048-0.923 1.281-0.724 2.586 0.199 1.313 1.114 2.005 1.154 2.029 0.064 0.048 0.135 0.072 0.207 0.072 0.103 0 0.215-0.048 0.279-0.143 0.111-0.151 0.080-0.366-0.072-0.485z"></path>
</symbol>
<symbol id="icon-baby_icon" viewBox="0 0 32 32">
<path fill="#c66369" style="fill: var(--color3, #c66369)" d="M31.862 18.655c0-1.211-0.578-2.366-1.568-3.082-0.248-0.165-0.578-0.11-0.77 0.11-0.165 0.248-0.138 0.578 0.11 0.77 0.688 0.495 1.101 1.321 1.101 2.174 0 1.128-0.688 2.091-1.678 2.476 0.165-0.798 0.248-1.651 0.248-2.476 0-7.181-5.723-13.070-12.822-13.317-0.027-0.303 0-0.605 0-0.908 0-0.248 0-0.468 0-0.688 0-0.055 0-0.11 0-0.165 0.798 0.495 2.229 0.77 2.889-0.11 0.275-0.385 0.33-0.88 0.138-1.293-0.22-0.523-0.798-0.908-1.403-0.963-0.77-0.083-1.458 0.138-1.954 0.605 0 0-0.027 0.028-0.027 0.028-0.358-0.413-0.605-0.88-0.715-1.376-0.055-0.303-0.358-0.495-0.633-0.44-0.303 0.055-0.495 0.358-0.44 0.633 0.138 0.77 0.578 1.513 1.211 2.146-0.083 0.303-0.138 0.605-0.138 0.963 0 0.22 0 0.44 0 0.66 0 0.495-0.027 1.018 0.055 1.541 0 0 0 0 0 0.027s0 0.027 0 0.055 0 0.027 0.027 0.055c0 0 0 0.027 0.027 0.027 0 0.027 0.027 0.027 0.027 0.055 0 0 0.027 0.027 0.027 0.027 0 0.027 0.027 0.027 0.027 0.055 0 0 0.027 0.027 0.027 0.027 0.027 0 0.027 0.027 0.055 0.027 0 0 0.027 0.027 0.027 0.027 0.027 0 0.027 0.027 0.055 0.027 0 0 0.027 0 0.027 0.027 0.027 0 0.055 0.027 0.055 0.027s0.027 0 0.027 0 0.083 0 0.11 0c0 0 0 0 0 0 6.741 0 12.244 5.503 12.244 12.244s-5.503 12.244-12.244 12.244c-6.741 0-12.244-5.503-12.244-12.244 0-5.971 4.265-11.034 10.126-12.052 0.303-0.055 0.495-0.33 0.44-0.633s-0.33-0.495-0.633-0.44c-6.383 1.073-11.006 6.604-11.006 13.125 0 0.88 0.083 1.706 0.248 2.531-1.073-0.358-1.816-1.376-1.816-2.531 0-0.853 0.413-1.678 1.101-2.174 0.248-0.165 0.303-0.523 0.11-0.77-0.165-0.248-0.523-0.303-0.77-0.11-0.963 0.688-1.541 1.844-1.541 3.054 0 1.871 1.376 3.467 3.192 3.742 1.623 5.531 6.741 9.603 12.794 9.603s11.199-4.072 12.794-9.63c1.788-0.33 3.082-1.871 3.082-3.715zM17.995 2.284c0.248 0.027 0.468 0.193 0.523 0.33 0.027 0.027 0.027 0.083-0.027 0.193-0.165 0.248-0.991 0.083-1.431-0.193-0.027-0.027-0.083-0.055-0.11-0.083 0.248-0.193 0.605-0.275 1.046-0.248z"></path>
</symbol>
<symbol id="icon-baby_icon_2" viewBox="0 0 39 32">
<path fill="#394556" style="fill: var(--color4, #394556)" d="M35.454 13.393c-1.238-7.593-7.853-13.393-15.772-13.393-0.065 0-0.13 0-0.196 0-0.033 0-0.033 0-0.065 0-0.098 0-0.163 0-0.261 0-7.723 0.228-14.045 5.963-15.283 13.393-2.183 0.196-3.878 2.053-3.878 4.301 0 2.379 1.955 4.301 4.334 4.301 0.163 0 0.326 0 0.489-0.033 2.379 5.866 8.114 10.037 14.859 10.037 6.713 0 12.481-4.139 14.859-10.037 0.163 0.033 0.326 0.033 0.489 0.033 2.379 0 4.334-1.923 4.334-4.334-0.033-2.216-1.727-4.073-3.91-4.269zM35.031 20.692c-0.261 0-0.521-0.033-0.749-0.098 0 0-0.033 0-0.033 0-0.033 0-0.033 0-0.065 0s-0.033 0-0.065 0-0.033 0-0.065 0-0.033 0-0.065 0-0.033 0-0.065 0-0.033 0-0.065 0.033c-0.033 0-0.033 0.033-0.065 0.033s-0.033 0.033-0.065 0.033c-0.033 0-0.033 0.033-0.065 0.033s-0.033 0.033-0.033 0.033c0 0-0.033 0.033-0.033 0.033 0 0.033-0.033 0.033-0.033 0.065s-0.033 0.033-0.033 0.065c0 0.033-0.033 0.033-0.033 0.065 0 0 0 0.033 0 0.033-2.053 5.637-7.462 9.678-13.817 9.678s-11.764-4.041-13.817-9.678c0 0 0-0.033 0-0.033 0-0.033-0.033-0.033-0.033-0.065s-0.033-0.033-0.033-0.065c0-0.033-0.033-0.033-0.033-0.065 0 0-0.033-0.033-0.033-0.033s-0.033-0.033-0.033-0.033c0 0-0.033-0.033-0.065-0.033s-0.033-0.033-0.065-0.033c-0.033 0-0.033-0.033-0.065-0.033s-0.033 0-0.065-0.033c-0.033 0-0.033 0-0.065 0s-0.033 0-0.065 0-0.033 0-0.065 0-0.033 0-0.065 0-0.033 0-0.065 0c0 0-0.033 0-0.033 0-0.228 0.065-0.489 0.098-0.75 0.098-1.662 0-2.998-1.336-2.998-2.998 0-1.466 1.043-2.672 2.411-2.933-0.033 0.424-0.065 0.847-0.065 1.271 0 0.358 0.293 0.652 0.652 0.652s0.652-0.293 0.652-0.652c0-6.55 4.301-12.122 10.232-14.012-0.749 0.88-1.206 2.086-1.206 3.356 0 2.965 2.411 5.377 5.409 5.377 1.825 0 3.422-0.912 4.399-2.281 0.196-0.293 0.13-0.717-0.163-0.912s-0.717-0.13-0.912 0.163c-0.75 1.043-1.955 1.727-3.324 1.727-2.248 0-4.073-1.825-4.073-4.073 0-2.151 1.695-3.943 3.813-4.073 0.163 0 0.326 0 0.521 0 8.114 0 14.697 6.582 14.697 14.697 0 0.358 0.293 0.652 0.652 0.652s0.652-0.293 0.652-0.652c0-0.424-0.033-0.847-0.065-1.271 1.369 0.293 2.411 1.499 2.411 2.933 0 1.662-1.369 3.031-2.998 3.031z"></path>
</symbol>
<symbol id="icon-tubik_bg" viewBox="0 0 31 32">
<path d="M17.015 10.66c-0.797-0.573-0.797-1.317-0.521-2.126 0.076-0.22 0.156-0.441 0.22-0.665 0.036-0.132 0.068-0.276 0.060-0.412-0.020-0.38-0.36-0.545-0.669-0.324-0.148 0.104-0.268 0.26-0.376 0.408-0.32 0.428-0.625 0.865-0.941 1.293-0.497 0.677-1.169 1.053-2.002 1.153-0.453 0.052-0.885-0.020-1.277-0.236-0.585-0.32-1.145-0.681-1.726-1.009-0.428-0.24-0.865-0.477-1.309-0.685-0.392-0.184-0.793-0.148-1.173 0.060-0.236 0.128-0.42 0.296-0.392 0.593 0.032 0.312 0.196 0.545 0.501 0.633 0.24 0.072 0.493 0.108 0.741 0.152 0.424 0.076 0.825 0.216 1.197 0.432 1.073 0.633 1.47 1.622 1.113 2.815-0.408 1.366-1.374 2.11-2.719 2.423-0.513 0.12-1.033 0.124-1.55 0.036-0.368-0.060-0.665-0.244-0.821-0.597-0.152-0.336-0.016-0.653 0.344-0.729 0.208-0.044 0.441-0.040 0.645 0.008 0.833 0.196 1.562 0.036 2.174-0.573 0.348-0.344 0.497-0.773 0.432-1.257-0.072-0.561-0.38-0.945-0.921-1.125-0.328-0.108-0.665-0.192-0.997-0.284-0.705-0.2-1.265-0.593-1.602-1.257-0.3-0.589-0.28-1.173 0.076-1.73 0.525-0.825 1.293-1.245 2.259-1.322 0.897-0.072 1.722 0.228 2.539 0.549 0.597 0.232 1.173 0.509 1.766 0.753 0.2 0.084 0.416 0.148 0.633 0.176 0.677 0.096 1.121-0.272 1.482-0.785 0.3-0.424 0.585-0.865 0.925-1.253 0.557-0.633 1.341-0.785 2.114-0.473 0.821 0.332 1.181 1.133 0.873 1.962-0.204 0.549-0.416 1.093-0.477 1.686-0.040 0.384 0.056 0.725 0.268 1.041 0.064 0.096 0.128 0.108 0.232 0.064 0.148-0.064 0.3-0.108 0.453-0.156 0.276-0.088 0.525-0.016 0.709 0.192 0.14 0.156 0.272 0.336 0.36 0.525 0.256 0.557 0.493 1.121 0.725 1.686 0.052 0.124 0.092 0.176 0.244 0.136 0.284-0.076 0.573-0.132 0.861-0.16 0.080-0.008 0.196 0.092 0.248 0.176 0.569 0.901 1.129 1.81 1.69 2.719 2.551 4.121 5.102 8.241 7.657 12.366 0.036 0.056 0.076 0.112 0.104 0.172 0.056 0.128 0.032 0.216-0.124 0.24-1.614 0.264-3.031 0.937-4.261 2.018-0.733 0.649-1.526 1.209-2.455 1.554-0.661 0.244-1.337 0.396-2.038 0.473-0.208 0.024-0.3-0.060-0.36-0.248-0.453-1.414-0.909-2.827-1.366-4.241-1.326-4.101-2.647-8.201-3.98-12.298-0.064-0.196-0.052-0.336 0.1-0.481 0.22-0.212 0.428-0.437 0.653-0.673-0.192-0.28-0.404-0.565-0.581-0.869-0.196-0.332-0.396-0.665-0.533-1.021-0.168-0.432-0.048-0.825 0.316-1.129 0.144-0.116 0.288-0.236 0.456-0.376zM30.014 26.406c-0.056-0.088-0.1-0.168-0.148-0.248-1.71-2.759-3.42-5.522-5.13-8.281-1.053-1.702-2.106-3.4-3.16-5.102-0.060-0.1-0.112-0.18-0.26-0.156-1.67 0.264-3.095 0.993-4.273 2.21-0.124 0.128-0.16 0.24-0.1 0.42 1.109 3.408 2.21 6.816 3.312 10.223 0.509 1.578 1.017 3.156 1.526 4.733 0.036 0.112 0.064 0.212 0.224 0.184 0.477-0.088 0.965-0.14 1.434-0.256 0.949-0.24 1.746-0.777 2.499-1.386 0.877-0.705 1.786-1.358 2.815-1.822 0.408-0.18 0.825-0.34 1.261-0.521zM17.7 10.24c-0.585-0.749-0.4-1.542-0.156-2.331 0.088-0.284 0.212-0.561 0.304-0.845 0.164-0.501 0.008-0.981-0.416-1.293-0.597-0.444-1.478-0.396-1.998 0.132-0.26 0.264-0.477 0.573-0.701 0.873-0.16 0.212-0.284 0.452-0.453 0.657-0.324 0.404-0.737 0.705-1.269 0.701-0.332 0-0.677-0.072-0.989-0.188-0.613-0.228-1.193-0.525-1.802-0.765-0.765-0.296-1.534-0.589-2.379-0.537-0.921 0.060-1.646 0.465-2.11 1.277-0.2 0.344-0.232 0.721-0.096 1.101 0.236 0.649 0.701 1.057 1.345 1.269 0.372 0.124 0.757 0.208 1.129 0.328 0.673 0.216 1.073 0.681 1.165 1.382 0.084 0.641-0.128 1.185-0.609 1.618-0.685 0.617-1.474 0.785-2.363 0.573-0.156-0.036-0.328-0.044-0.489-0.020-0.2 0.032-0.24 0.16-0.14 0.344 0.128 0.232 0.344 0.364 0.601 0.38 0.396 0.020 0.805 0.060 1.193-0.004 1.253-0.208 2.206-0.837 2.647-2.090 0.34-0.965 0.136-1.802-0.597-2.379-0.36-0.284-0.769-0.477-1.217-0.577-0.332-0.072-0.673-0.112-0.997-0.208-0.433-0.132-0.665-0.457-0.709-0.901-0.040-0.428 0.2-0.705 0.553-0.893 0.461-0.248 0.945-0.304 1.422-0.084 0.493 0.228 0.973 0.497 1.446 0.761 0.545 0.308 1.077 0.641 1.622 0.945 0.32 0.176 0.677 0.252 1.041 0.216 0.749-0.072 1.366-0.388 1.818-0.997 0.32-0.432 0.633-0.877 0.957-1.309 0.12-0.16 0.244-0.32 0.392-0.452 0.244-0.22 0.545-0.256 0.841-0.132 0.292 0.124 0.396 0.388 0.392 0.685-0.004 0.188-0.048 0.38-0.1 0.565-0.096 0.352-0.228 0.697-0.312 1.053-0.128 0.533 0.064 0.997 0.521 1.301 0.044 0.032 0.128 0.048 0.172 0.028 0.12-0.040 0.22-0.112 0.34-0.184zM19.802 11.649c-0.965 0.42-1.806 0.969-2.555 1.678 0.124 0.188 0.244 0.36 0.372 0.553 0.769-0.597 1.598-1.029 2.531-1.322-0.12-0.304-0.228-0.597-0.348-0.909zM19.394 10.772c-1.021 0.42-1.902 0.993-2.679 1.758 0.116 0.176 0.228 0.348 0.348 0.533 0.781-0.725 1.646-1.281 2.611-1.706-0.096-0.2-0.184-0.384-0.28-0.585zM19.202 10.472c-0.172-0.276-0.32-0.34-0.621-0.244-0.697 0.22-1.309 0.597-1.846 1.085-0.28 0.252-0.316 0.533-0.148 0.857 0.412-0.312 0.809-0.645 1.245-0.925 0.436-0.288 0.909-0.521 1.37-0.773zM21.953 30.719c0.096 0.3 0.184 0.589 0.284 0.877 0.012 0.036 0.080 0.080 0.116 0.076 0.308-0.040 0.613-0.092 0.969-0.148-0.104-0.32-0.192-0.601-0.292-0.881-0.012-0.028-0.076-0.060-0.108-0.056-0.316 0.044-0.633 0.088-0.969 0.132zM24.944 30.931c0.296-0.192 0.585-0.38 0.869-0.573 0.028-0.020 0.052-0.1 0.036-0.128-0.128-0.236-0.268-0.469-0.404-0.697-0.324 0.192-0.613 0.36-0.909 0.537 0.132 0.276 0.264 0.549 0.408 0.861zM23.334 30.506c0.096 0.32 0.188 0.613 0.284 0.937 0.34-0.124 0.673-0.244 1.037-0.38-0.144-0.308-0.276-0.589-0.408-0.869-0.316 0.112-0.609 0.212-0.913 0.312zM26.51 28.704c-0.288 0.224-0.553 0.428-0.817 0.633 0.164 0.26 0.312 0.497 0.473 0.753 0.284-0.24 0.565-0.473 0.857-0.713-0.176-0.232-0.34-0.445-0.513-0.673zM29.005 28.2c-0.156-0.284-0.304-0.545-0.461-0.825-0.272 0.152-0.521 0.292-0.781 0.441 0.168 0.268 0.32 0.505 0.481 0.749 0.244-0.116 0.485-0.232 0.761-0.364zM27.959 28.724c-0.132-0.216-0.248-0.416-0.38-0.609-0.028-0.044-0.136-0.084-0.172-0.064-0.224 0.14-0.433 0.3-0.653 0.456 0.184 0.236 0.348 0.453 0.517 0.669 0.236-0.148 0.448-0.292 0.689-0.453zM29.665 26.91c0.144 0.276 0.288 0.561 0.441 0.837 0.016 0.028 0.076 0.056 0.108 0.052 0.188-0.036 0.372-0.084 0.581-0.132-0.128-0.208-0.24-0.396-0.356-0.581-0.264-0.428-0.264-0.428-0.729-0.216-0.012 0.008-0.020 0.020-0.044 0.040zM29.838 27.907c-0.172-0.316-0.328-0.605-0.489-0.901-0.188 0.084-0.348 0.16-0.517 0.236 0.16 0.288 0.308 0.561 0.469 0.849 0.168-0.060 0.336-0.116 0.537-0.184z"></path>
<path d="M3.276 21.873c-0.921-0.008-1.578-0.4-2.178-0.913-0.457-0.392-0.825-0.853-1.013-1.438-0.164-0.517-0.1-0.997 0.224-1.442 0.505-0.693 1.089-1.313 1.726-1.886 0.192-0.172 0.4-0.332 0.589-0.513 0.12-0.116 0.2-0.080 0.276 0.028 0.092 0.132 0.164 0.276 0.252 0.408 0.877 1.354 2.086 2.283 3.612 2.799 0.064 0.020 0.148 0.028 0.18 0.072 0.044 0.060 0.092 0.18 0.064 0.224-0.809 1.185-1.762 2.198-3.212 2.579-0.204 0.052-0.412 0.064-0.521 0.080zM6.639 19.214c-1.702-0.605-3.003-1.654-3.92-3.184-0.044 0.032-0.080 0.052-0.108 0.076-0.725 0.613-1.382 1.293-1.966 2.042-0.392 0.501-0.428 1.017-0.14 1.566 0.352 0.677 0.901 1.165 1.558 1.534 0.585 0.328 1.193 0.396 1.83 0.188 1.189-0.384 2.006-1.221 2.747-2.223z"></path>
<path d="M10.003 1.494c0.204 0.1 0.424 0.18 0.613 0.308 0.34 0.232 0.545 0.581 0.721 0.941 0.324 0.669 0.637 1.35 0.961 2.018 0.136 0.28 0.308 0.545 0.444 0.825 0.044 0.092 0.084 0.24 0.044 0.304-0.044 0.068-0.196 0.092-0.296 0.084-0.136-0.012-0.272-0.060-0.4-0.112-1.177-0.493-2.094-1.281-2.687-2.423-0.184-0.356-0.304-0.741-0.22-1.153 0.092-0.433 0.428-0.749 0.797-0.745 0.008-0.016 0.016-0.032 0.024-0.048zM12.366 5.634c-0.448-0.941-0.877-1.854-1.317-2.767-0.080-0.168-0.168-0.34-0.292-0.473-0.168-0.18-0.36-0.356-0.569-0.485-0.232-0.14-0.424-0.056-0.581 0.172-0.16 0.24-0.164 0.501-0.088 0.765 0.184 0.653 0.589 1.173 1.057 1.646 0.505 0.513 1.097 0.881 1.79 1.141z"></path>
<path d="M2.255 11.016c0.216-0.072 0.428-0.172 0.653-0.216 0.404-0.076 0.797 0.024 1.173 0.156 0.701 0.244 1.406 0.505 2.106 0.749 0.296 0.1 0.605 0.168 0.897 0.268 0.096 0.032 0.228 0.112 0.248 0.184 0.016 0.080-0.072 0.204-0.148 0.268-0.104 0.088-0.236 0.148-0.364 0.204-1.181 0.485-2.387 0.577-3.612 0.188-0.38-0.12-0.741-0.308-0.973-0.661-0.24-0.372-0.228-0.833 0.036-1.089-0.004-0.016-0.012-0.036-0.016-0.052zM6.852 12.274c-0.981-0.348-1.93-0.693-2.887-1.025-0.176-0.064-0.36-0.12-0.541-0.128-0.248-0.008-0.509 0.004-0.745 0.060-0.264 0.064-0.34 0.26-0.288 0.533 0.056 0.284 0.236 0.469 0.481 0.605 0.593 0.332 1.245 0.412 1.91 0.416 0.717 0.004 1.398-0.156 2.070-0.461z"></path>
<path d="M21.34 6.447c-0.016 0.196-0.152 0.364-0.356 0.469-0.14 0.072-0.3 0.108-0.445 0.172-0.296 0.136-0.585 0.284-0.877 0.42-0.056 0.024-0.156 0.040-0.192 0.012-0.044-0.036-0.072-0.14-0.048-0.192 0.264-0.613 0.609-1.161 1.322-1.333 0.32-0.076 0.597 0.116 0.597 0.452zM19.97 6.952c0.276-0.084 0.513-0.152 0.741-0.232 0.080-0.028 0.168-0.064 0.22-0.128 0.048-0.056 0.048-0.148 0.072-0.224-0.072-0.016-0.152-0.064-0.208-0.044-0.324 0.116-0.617 0.28-0.825 0.629z"></path>
<path d="M13.519 12.298c-0.040 0.216-0.072 0.461-0.136 0.697-0.036 0.124-0.112 0.24-0.2 0.34-0.128 0.144-0.376 0.168-0.557 0.084-0.2-0.096-0.2-0.272-0.16-0.444 0.112-0.481 0.4-0.865 0.693-1.245 0.084-0.108 0.232-0.072 0.28 0.076 0.044 0.14 0.052 0.3 0.080 0.493zM13.207 12.314c-0.024-0.008-0.044-0.012-0.068-0.020-0.108 0.18-0.232 0.352-0.32 0.545-0.036 0.080-0.004 0.192 0 0.292 0.080-0.060 0.204-0.108 0.236-0.188 0.072-0.2 0.104-0.416 0.152-0.629z"></path>
<path d="M4.149 5.758c-0.184-0.12-0.4-0.24-0.593-0.388-0.1-0.080-0.18-0.196-0.24-0.312-0.084-0.172-0.012-0.412 0.132-0.549 0.164-0.148 0.328-0.084 0.473 0.020 0.4 0.284 0.649 0.697 0.889 1.113 0.068 0.12-0.020 0.24-0.176 0.232-0.144-0.016-0.296-0.072-0.485-0.116zM4.253 5.462c0.016-0.020 0.028-0.036 0.044-0.056-0.124-0.168-0.24-0.348-0.384-0.505-0.060-0.064-0.176-0.076-0.272-0.112 0.024 0.096 0.024 0.228 0.084 0.288 0.16 0.148 0.348 0.26 0.529 0.384z"></path>
<path d="M0.893 18.757c0.248 0.068 0.473 0.112 0.681 0.192 0.889 0.332 1.618 0.873 2.098 1.702 0.080 0.136 0.148 0.284 0.188 0.441 0.016 0.064-0.052 0.156-0.080 0.232-0.068-0.044-0.176-0.072-0.204-0.132-0.489-1.173-1.414-1.794-2.607-2.090-0.032-0.008-0.080 0.004-0.096-0.016-0.056-0.064-0.116-0.132-0.136-0.208-0.004-0.020 0.104-0.076 0.156-0.12z"></path>
</symbol>
<symbol id="icon-logo_liki" viewBox="0 0 84 32">
<path fill="#3fcfd5" style="fill: var(--color5, #3fcfd5)" d="M68.204 0.199c-4.048 0.187-7.664 1.895-10.319 4.561l-0.001 0.001c-6.098 6.105-6.098 16.003 0 22.108 2.656 2.667 6.272 4.374 10.286 4.561l0.034 0.001v-31.231zM79.967 4.761c-2.656-2.666-6.272-4.374-10.286-4.561l-0.034-0.001v31.231c4.048-0.188 7.664-1.895 10.32-4.561l0.001-0c6.098-6.105 6.098-16.003 0-22.108z"></path>
<path fill="#fff" style="fill: var(--color6, #fff)" d="M64.188 13.522v0.335c0 0.868-0.167 1.539-1.264 2.849l-2.21 2.667h3.581v1.111h-5.135v-0.99l3.047-3.854c0.579-0.732 0.685-1.051 0.685-1.767v-0.274c0-0.975-0.471-1.356-1.584-1.356-0.595 0-1.387 0.168-1.92 0.335v-1.112c0.671-0.183 1.387-0.32 1.92-0.32 1.98 0 2.88 0.807 2.88 2.377zM73.831 17.452h2.773v-4.647l-2.773 4.647zM77.853 17.452h0.93v1.067h-0.93v1.964h-1.265v-1.964h-4.143v-0.9l3.93-6.292h1.478v6.124z"></path>
<path fill="#000" style="fill: var(--color7, #000)" d="M2.018 21.013h5.274v1.522h-6.998v-13.284h1.724zM14.975 22.535h1.724v-13.284h-1.724zM30.465 15.68l5.618 6.855h-2.21l-5.193-6.51v6.51h-1.724v-13.284h1.724v6.409l4.948-6.409h1.927zM42.768 22.535h1.724v-13.284h-1.724z"></path>
</symbol>
<symbol id="icon-menu_40px" viewBox="0 0 32 32">
<path d="M6.4 11.733v-2.133h19.2v2.133h-19.2zM6.4 17.067h19.2v-2.133h-19.2v2.133zM6.4 22.4h19.2v-2.133h-19.2v2.133z"></path>
</symbol>
<symbol id="icon-close_40px" viewBox="0 0 32 32">
<path d="M23.733 10.304l-1.504-1.504-5.963 5.963-5.963-5.963-1.504 1.504 5.963 5.963-5.963 5.963 1.504 1.504 5.963-5.963 5.963 5.963 1.504-1.504-5.963-5.963 5.963-5.963z"></path>
</symbol>
<symbol id="icon-logo_Orion" viewBox="0 0 117 32">
<path d="M60.322 16.029h5.422v14.723h-5.422v-14.723z"></path>
<path d="M46.366 26.944h-3.701l0.018 3.83h-5.422v-14.727h5.422c7.361 0 7.343 0.013 7.343 0.013h0.152c3.669 0 6.643 2.443 6.643 5.457 0 2.345-1.873 4.32-4.432 5.087l4.628 4.155-7.602 0.004-3.050-3.821zM42.67 23.047h6.67c0.91-0.094 1.61-0.704 1.61-1.449s-0.664-1.387-1.565-1.48h-6.715v2.929z"></path>
<path d="M110.143 16.069h5.426v14.723h-5.426l-9.122-7.959v7.959h-5.422v-14.723h5.422l9.122 7.856z"></path>
<path d="M75.365 23.448c0 1.596 2.336 2.894 5.217 2.898 2.88 0 5.217-1.302 5.217-2.898s-2.332-2.894-5.217-2.894c-2.88 0-5.217 1.297-5.217 2.894zM69.065 23.448c0-4.307 5.159-7.803 11.517-7.803 6.363 0 11.517 3.491 11.517 7.803 0 4.307-5.159 7.803-11.517 7.803s-11.517-3.496-11.517-7.803z"></path>
<path d="M8.806 20.929c0 2.131 3.598 3.861 8.043 3.861 4.441 0 8.039-1.73 8.039-3.861s-3.598-3.861-8.039-3.861c-4.445 0-8.043 1.73-8.043 3.861zM0.615 18.397c1.806-4.53 7.174-7.843 10.826-9.417 7.883-3.406 16.176-5.408 24.46-6.808 8.908-1.503 13.715-1.685 22.534-1.993 10.893-0.375 17.072-0.218 27.929 0.901 11.236 1.155 20.403 3.255 29.262 5.894l0.976 2.912c-10.014-2.247-17.848-3.478-27.608-4.249-10.487-0.825-15.94-0.798-25.936-0.321-16.381 0.785-28.375 3.594-37.181 6.857 4.673 1.922 7.816 5.275 7.816 9.1 0 5.921-7.544 10.723-16.845 10.723-9.305 0.004-16.849-4.798-16.849-10.719 0-0.999 0.214-1.962 0.615-2.88z"></path>
</symbol>
<symbol id="icon-arrow-up2" viewBox="0 0 32 32">
<path d="M27.414 12.586l-10-10c-0.781-0.781-2.047-0.781-2.828 0l-10 10c-0.781 0.781-0.781 2.047 0 2.828s2.047 0.781 2.828 0l6.586-6.586v19.172c0 1.105 0.895 2 2 2s2-0.895 2-2v-19.172l6.586 6.586c0.39 0.39 0.902 0.586 1.414 0.586s1.024-0.195 1.414-0.586c0.781-0.781 0.781-2.047 0-2.828z"></path>
</symbol>

<symbol id="icon-facebook" viewBox="0 0 32 32">
<path d="M21.328 5.312h2.923v-5.088c-1.232-0.143-2.66-0.224-4.108-0.224-0.052 0-0.104 0-0.156 0l0.008-0c-4.213 0-7.099 2.65-7.099 7.52v4.48h-4.646v5.688h4.646v14.312h5.699v-14.31h4.459l0.707-5.688h-5.168v-3.922c0-1.643 0.443-2.768 2.734-2.768z"></path>
</symbol>
<symbol id="icon-instagram" viewBox="0 0 32 32">
<path  d="M31.968 9.408c-0.074-1.701-0.349-2.869-0.742-3.882-0.424-1.111-1.054-2.059-1.85-2.837l-0.001-0.001c-0.78-0.792-1.724-1.419-2.778-1.827l-0.054-0.018c-1.019-0.394-2.181-0.667-3.882-0.742-1.712-0.082-2.256-0.101-6.602-0.101-4.344 0-4.888 0.019-6.595 0.094-1.699 0.074-2.869 0.349-3.88 0.742-1.112 0.424-2.060 1.054-2.839 1.85l-0.001 0.001c-0.791 0.78-1.418 1.724-1.825 2.778l-0.018 0.054c-0.395 1.019-0.669 2.181-0.744 3.882-0.082 1.712-0.101 2.256-0.101 6.602 0 4.344 0.019 4.888 0.094 6.595 0.075 1.701 0.35 2.869 0.744 3.882 0.426 1.11 1.055 2.057 1.849 2.837l0.001 0.001c0.8 0.813 1.77 1.443 2.832 1.843 1.019 0.395 2.182 0.67 3.882 0.744 1.707 0.075 2.251 0.094 6.595 0.094 4.346 0 4.89-0.019 6.595-0.094 1.701-0.074 2.869-0.349 3.882-0.742 2.157-0.85 3.833-2.526 4.664-4.628l0.019-0.055c0.394-1.019 0.669-2.182 0.744-3.882 0.075-1.707 0.093-2.251 0.093-6.595s-0.006-4.888-0.080-6.595zM29.088 22.474c-0.070 1.563-0.333 2.406-0.55 2.97-0.552 1.399-1.64 2.486-3.004 3.024l-0.036 0.012c-0.56 0.219-1.411 0.482-2.968 0.55-1.688 0.075-2.194 0.094-6.464 0.094-4.269 0-4.782-0.019-6.464-0.094-1.563-0.069-2.406-0.331-2.97-0.55-0.721-0.269-1.334-0.676-1.836-1.192l-0.001-0.001c-0.517-0.503-0.924-1.117-1.184-1.803l-0.011-0.034c-0.218-0.563-0.48-1.413-0.549-2.97-0.075-1.688-0.094-2.195-0.094-6.464 0-4.27 0.019-4.784 0.094-6.464 0.069-1.563 0.331-2.406 0.549-2.97 0.269-0.722 0.678-1.337 1.198-1.837l0.002-0.002c0.504-0.517 1.119-0.923 1.806-1.182l0.034-0.011c0.56-0.219 1.411-0.48 2.968-0.55 1.688-0.074 2.195-0.093 6.464-0.093 4.275 0 4.782 0.019 6.464 0.093 1.563 0.069 2.406 0.331 2.97 0.55 0.693 0.256 1.325 0.662 1.837 1.194 0.531 0.52 0.938 1.144 1.195 1.84 0.218 0.56 0.48 1.411 0.549 2.968 0.075 1.688 0.094 2.194 0.094 6.464 0 4.269-0.019 4.768-0.094 6.458z"></path>
<path  d="M16.059 7.782c-4.539 0.002-8.218 3.682-8.219 8.221v0c0.091 4.471 3.737 8.060 8.221 8.060s8.13-3.589 8.221-8.052l0-0.009c-0.001-4.54-3.681-8.22-8.221-8.221h-0zM16.059 21.334c-2.945-0-5.332-2.388-5.332-5.333s2.388-5.333 5.333-5.333c0 0 0.001 0 0.001 0h-0c2.946 0 5.334 2.388 5.334 5.334s-2.388 5.334-5.334 5.334v0zM26.525 7.458c0 1.060-0.86 1.92-1.92 1.92s-1.92-0.86-1.92-1.92v0c0-1.060 0.86-1.92 1.92-1.92s1.92 0.86 1.92 1.92v0z"></path>
</symbol>
</defs>
</svg>
